<svg width="31" height="25" viewBox="0 0 31 25" fill="none" xmlns="http://www.w3.org/2000/svg">
<path d="M19.9615 6.75V3.875C19.9615 3.1125 19.6678 2.38124 19.1448 1.84207C18.6219 1.3029 17.9126 1 17.1731 1H3.78846C3.04892 1 2.33966 1.3029 1.81672 1.84207C1.29378 2.38124 1 3.1125 1 3.875V21.125C1 21.8875 1.29378 22.6188 1.81672 23.1579C2.33966 23.6971 3.04892 24 3.78846 24H17.1731C17.9126 24 18.6219 23.6971 19.1448 23.1579C19.6678 22.6188 19.9615 21.8875 19.9615 21.125V18.25M24.4231 6.75L30 12.5M30 12.5L24.4231 18.25M30 12.5H10.9687" stroke="white" stroke-width="2" stroke-linecap="round" stroke-linejoin="round"/>
</svg>
