<svg width="41" height="41" viewBox="0 0 41 41" fill="none" xmlns="http://www.w3.org/2000/svg">
<path d="M14.1228 25.0784C13.8085 25.0784 13.5966 25.1091 13.4873 25.1399V27.1523C13.6171 27.183 13.7794 27.1916 14.0032 27.1916C14.8215 27.1916 15.3255 26.7782 15.3255 26.0795C15.3255 25.4542 14.8916 25.0784 14.1228 25.0784ZM20.0798 25.0989C19.7381 25.0989 19.516 25.1296 19.3845 25.1604V29.6191C19.516 29.6499 19.7278 29.6499 19.9192 29.6499C21.3149 29.6601 22.2237 28.8914 22.2237 27.265C22.234 25.8471 21.4054 25.0989 20.0798 25.0989Z" fill="#03045E"/>
<path d="M23.9163 3.41663H10.2497C9.34352 3.41663 8.47448 3.7766 7.83373 4.41734C7.19298 5.05809 6.83301 5.92714 6.83301 6.83329V34.1666C6.83301 35.0728 7.19298 35.9418 7.83373 36.5826C8.47448 37.2233 9.34352 37.5833 10.2497 37.5833H30.7497C31.6558 37.5833 32.5249 37.2233 33.1656 36.5826C33.8064 35.9418 34.1663 35.0728 34.1663 34.1666V13.6666L23.9163 3.41663ZM16.2254 27.6579C15.6975 28.1533 14.9185 28.3754 14.0114 28.3754C13.8355 28.3773 13.6597 28.367 13.4853 28.3446V30.7807H11.958V24.0567C12.6472 23.9539 13.3437 23.907 14.0405 23.9166C14.992 23.9166 15.6685 24.0977 16.1246 24.4616C16.5585 24.8067 16.8524 25.3721 16.8524 26.0384C16.8507 26.708 16.6286 27.2735 16.2254 27.6579ZM22.729 29.9727C22.0115 30.5689 20.9199 30.8525 19.5857 30.8525C18.7862 30.8525 18.2208 30.8012 17.8364 30.75V24.0584C18.5259 23.9578 19.2221 23.9104 19.9188 23.9166C21.212 23.9166 22.0525 24.149 22.7085 24.6444C23.4175 25.1705 23.8617 26.0093 23.8617 27.2137C23.8617 28.5172 23.385 29.4175 22.729 29.9727ZM29.0413 25.232H26.4242V26.7883H28.8705V28.0423H26.4242V30.7824H24.8764V23.9679H29.0413V25.232ZM23.9163 15.375H22.208V6.83329L30.7497 15.375H23.9163Z" fill="#03045E"/>
</svg>
